<svg class="diagram-root" style="background: #f5f6f6" xmlns="http://www.w3.org/2000/svg" xmlns:xlink="http://www.w3.org/1999/xlink"><style>.diagram-root { font-family: "Helvetica Neue", sans-serif; font-size: 12px; } .t { overflow: visible; } .t-bg { y: 40; fill: #fff;   } .th { fill: #005aa0;   } .tht { fill: #fff; font-size: 14px;  } .tf { fill: #323c46; overflow: visible; } .tf.pk { fill: #005aa0; font-weight: bold; } .tf.fk { font-weight: bold; } .ty { fill: #adb1b5; font-weight: normal; text-anchor: end; } .r { fill: transparent; stroke: #c3c3c3; stroke-width: 1; } .l { stroke: 1; } .i { fill: #c2c7ce; stroke: #c2c7ce; } .i.ix { fill: #afb3b6; stroke: #000; } .fa { fill: transparent; overflow: visible; } .fa .bg.hover { fill: #f7f7f7; } .c { cy: 12; r: 4; stroke: #d2d2dc; fill: #d2d2dc; } .hr { fill: transparent; stroke: #323c46; stroke-opacity: 0.035; stroke-width: 13; } .dc { stroke: #fa5a3c; fill: #fa5a3c; } .x { stroke: white; stroke-width: 1; } .hl .th { fill: #1b9bff; } .hl .tht {  } .fhl .bg { fill: #e7f4ff; } .fhls .bg {  } .r.hl { stroke: #1b9bff; } .dim { opacity: 0.25; }</style><g class="drawing-wrapper" transform="translate(-86, -42) scale(1,1)"><g class="rs"><path d="M 827.49 410 m -1, 0 a 1,1 0 1,0 2,0 a 1,1 0 1,0 -2,0 M 827.49 410 m -0.5, 0 a 0.5,0.5 0 1,0 1,0 a 0.5,0.5 0 1,0 -1,0  M827.49 410 L827.49 410 839.49 410 M 827.49 416 m -1, 0 a 1,1 0 1,0 2,0 a 1,1 0 1,0 -2,0 M 827.49 416 m -0.5, 0 a 0.5,0.5 0 1,0 1,0 a 0.5,0.5 0 1,0 -1,0  M827.49 416 L827.49 416 834.49 410 827.49 404 M 827.49 404 m -1, 0 a 1,1 0 1,0 2,0 a 1,1 0 1,0 -2,0 M 827.49 404 m -0.5, 0 a 0.5,0.5 0 1,0 1,0 a 0.5,0.5 0 1,0 -1,0  M839.49 410 Q 859.37 410, 879.25 521 T 919 632 M 931 632 m -1, 0 a 1,1 0 1,0 2,0 a 1,1 0 1,0 -2,0 M 931 632 m -0.5, 0 a 0.5,0.5 0 1,0 1,0 a 0.5,0.5 0 1,0 -1,0  M931 632 L931 632 919 632 M925 638 L925 638 925 626" id="h1537058300" class="r"></path><path d="M 255.16 445 m -1, 0 a 1,1 0 1,0 2,0 a 1,1 0 1,0 -2,0 M 255.16 445 m -0.5, 0 a 0.5,0.5 0 1,0 1,0 a 0.5,0.5 0 1,0 -1,0  M255.16 445 L255.16 445 267.15999999999997 445 M 255.16 451 m -1, 0 a 1,1 0 1,0 2,0 a 1,1 0 1,0 -2,0 M 255.16 451 m -0.5, 0 a 0.5,0.5 0 1,0 1,0 a 0.5,0.5 0 1,0 -1,0  M255.16 451 L255.16 451 262.15999999999997 445 255.16 439 M 255.16 439 m -1, 0 a 1,1 0 1,0 2,0 a 1,1 0 1,0 -2,0 M 255.16 439 m -0.5, 0 a 0.5,0.5 0 1,0 1,0 a 0.5,0.5 0 1,0 -1,0  M267.15999999999997 445 Q 362.12 445, 457.08 415 T 647 385 M 659 385 m -1, 0 a 1,1 0 1,0 2,0 a 1,1 0 1,0 -2,0 M 659 385 m -0.5, 0 a 0.5,0.5 0 1,0 1,0 a 0.5,0.5 0 1,0 -1,0  M659 385 L659 385 647 385 M653 391 L653 391 653 379" id="h1139284389" class="r"></path><path d="M 108 470 m -1, 0 a 1,1 0 1,0 2,0 a 1,1 0 1,0 -2,0 M 108 470 m -0.5, 0 a 0.5,0.5 0 1,0 1,0 a 0.5,0.5 0 1,0 -1,0  M108 470 L108 470 96 470 M 108 476 m -1, 0 a 1,1 0 1,0 2,0 a 1,1 0 1,0 -2,0 M 108 476 m -0.5, 0 a 0.5,0.5 0 1,0 1,0 a 0.5,0.5 0 1,0 -1,0  M108 476 L108 476 101 470 108 464 M 108 464 m -1, 0 a 1,1 0 1,0 2,0 a 1,1 0 1,0 -2,0 M 108 464 m -0.5, 0 a 0.5,0.5 0 1,0 1,0 a 0.5,0.5 0 1,0 -1,0  M96 470 C 46 470, 42.4 132, 102 132 M 114 132 m -1, 0 a 1,1 0 1,0 2,0 a 1,1 0 1,0 -2,0 M 114 132 m -0.5, 0 a 0.5,0.5 0 1,0 1,0 a 0.5,0.5 0 1,0 -1,0  M114 132 L114 132 102 132 M108 138 L108 138 108 126" id="h1607168654" class="r"></path><path d="M 502 129 m -1, 0 a 1,1 0 1,0 2,0 a 1,1 0 1,0 -2,0 M 502 129 m -0.5, 0 a 0.5,0.5 0 1,0 1,0 a 0.5,0.5 0 1,0 -1,0  M502 129 L502 129 490 129 M 502 135 m -1, 0 a 1,1 0 1,0 2,0 a 1,1 0 1,0 -2,0 M 502 135 m -0.5, 0 a 0.5,0.5 0 1,0 1,0 a 0.5,0.5 0 1,0 -1,0  M502 135 L502 135 495 129 502 123 M 502 123 m -1, 0 a 1,1 0 1,0 2,0 a 1,1 0 1,0 -2,0 M 502 123 m -0.5, 0 a 0.5,0.5 0 1,0 1,0 a 0.5,0.5 0 1,0 -1,0  M490 129 Q 439.96 129, 389.92 130.5 T 289.83 132 M 277.83 132 m -1, 0 a 1,1 0 1,0 2,0 a 1,1 0 1,0 -2,0 M 277.83 132 m -0.5, 0 a 0.5,0.5 0 1,0 1,0 a 0.5,0.5 0 1,0 -1,0  M277.83 132 L277.83 132 289.83 132 M283.83 138 L283.83 138 283.83 126" id="h1397587031" class="r"></path><path d="M 502 154 m -1, 0 a 1,1 0 1,0 2,0 a 1,1 0 1,0 -2,0 M 502 154 m -0.5, 0 a 0.5,0.5 0 1,0 1,0 a 0.5,0.5 0 1,0 -1,0  M502 154 L502 154 490 154 M 502 160 m -1, 0 a 1,1 0 1,0 2,0 a 1,1 0 1,0 -2,0 M 502 160 m -0.5, 0 a 0.5,0.5 0 1,0 1,0 a 0.5,0.5 0 1,0 -1,0  M502 160 L502 160 495 154 502 148 M 502 148 m -1, 0 a 1,1 0 1,0 2,0 a 1,1 0 1,0 -2,0 M 502 148 m -0.5, 0 a 0.5,0.5 0 1,0 1,0 a 0.5,0.5 0 1,0 -1,0  M490 154 C 440 154, 345.79999999999995 385, 647 385 M 659 385 m -1, 0 a 1,1 0 1,0 2,0 a 1,1 0 1,0 -2,0 M 659 385 m -0.5, 0 a 0.5,0.5 0 1,0 1,0 a 0.5,0.5 0 1,0 -1,0  M659 385 L659 385 647 385 M653 391 L653 391 653 379" id="h2286254435" class="r"></path><path d="M 1081 400 m -1, 0 a 1,1 0 1,0 2,0 a 1,1 0 1,0 -2,0 M 1081 400 m -0.5, 0 a 0.5,0.5 0 1,0 1,0 a 0.5,0.5 0 1,0 -1,0  M1081 400 L1081 400 1069 400 M 1081 406 m -1, 0 a 1,1 0 1,0 2,0 a 1,1 0 1,0 -2,0 M 1081 406 m -0.5, 0 a 0.5,0.5 0 1,0 1,0 a 0.5,0.5 0 1,0 -1,0  M1081 406 L1081 406 1074 400 1081 394 M 1081 394 m -1, 0 a 1,1 0 1,0 2,0 a 1,1 0 1,0 -2,0 M 1081 394 m -0.5, 0 a 0.5,0.5 0 1,0 1,0 a 0.5,0.5 0 1,0 -1,0  M1069 400 Q 1011.63 400, 954.25 392.5 T 839.49 385 M 827.49 385 m -1, 0 a 1,1 0 1,0 2,0 a 1,1 0 1,0 -2,0 M 827.49 385 m -0.5, 0 a 0.5,0.5 0 1,0 1,0 a 0.5,0.5 0 1,0 -1,0  M827.49 385 L827.49 385 839.49 385 M833.49 391 L833.49 391 833.49 379" id="h3177548053" class="r"></path></g><g class="hrs"></g><g class="ts"><svg width="138.47" height="100" x="931" y="575" id="h311790747" class="t"><rect height="40" width="138.47" class="th"></rect><text x="13" y="25" class="tht">titles</text><rect height="60" width="138.47" class="t-bg"></rect><text x="13" y="61" class="tf fk">title_id<tspan x="125.47" class="ty">VARCHAR</tspan></text><text x="13" y="86" class="tf">title<tspan x="125.47" class="ty">VARCHAR</tspan></text></svg><svg width="102.04" height="100" x="1081" y="343" id="h2472833127" class="t"><rect height="40" width="102.04" class="th"></rect><text x="13" y="25" class="tht">salaries</text><rect height="60" width="102.04" class="t-bg"></rect><text x="13" y="61" class="tf fk">emp_no<tspan x="89.04" class="ty">int</tspan></text><text x="13" y="86" class="tf">salary<tspan x="89.04" class="ty">int</tspan></text></svg><svg width="163.83" height="100" x="114" y="75" id="h475896179" class="t"><rect height="40" width="163.83" class="th"></rect><text x="13" y="25" class="tht">departments</text><rect height="60" width="163.83" class="t-bg"></rect><text x="13" y="61" class="tf fk">dept_no<tspan x="150.83" class="ty">VARCHAR</tspan></text><text x="13" y="86" class="tf">dept_name<tspan x="150.83" class="ty">VARCHAR</tspan></text></svg><svg width="147.16" height="100" x="108" y="388" id="h1090417462" class="t"><rect height="40" width="147.16" class="th"></rect><text x="13" y="25" class="tht">dept_emp</text><rect height="60" width="147.16" class="t-bg"></rect><text x="13" y="61" class="tf fk">emp_no<tspan x="134.16" class="ty">int</tspan></text><text x="13" y="86" class="tf fk">dept_no<tspan x="134.16" class="ty">VARCHAR</tspan></text></svg><svg width="147.16" height="100" x="502" y="72" id="h1676682957" class="t"><rect height="40" width="147.16" class="th"></rect><text x="13" y="25" class="tht">dept_manager</text><rect height="60" width="147.16" class="t-bg"></rect><text x="13" y="61" class="tf fk">dept_no<tspan x="134.16" class="ty">VARCHAR</tspan></text><text x="13" y="86" class="tf fk">emp_no<tspan x="134.16" class="ty">int</tspan></text></svg><svg width="168.49" height="225" x="659" y="328" id="h1639608377" class="t"><rect height="40" width="168.49" class="th"></rect><text x="13" y="25" class="tht">employees</text><rect height="185" width="168.49" class="t-bg"></rect><text x="13" y="61" class="tf fk">emp_no<tspan x="155.49" class="ty">int</tspan></text><text x="13" y="86" class="tf fk">emp_title_id<tspan x="155.49" class="ty">VARCHAR</tspan></text><text x="13" y="111" class="tf">birth_date<tspan x="155.49" class="ty">VARCHAR</tspan></text><text x="13" y="136" class="tf">first_name<tspan x="155.49" class="ty">VARCHAR</tspan></text><text x="13" y="161" class="tf">last_name<tspan x="155.49" class="ty">VARCHAR</tspan></text><text x="13" y="186" class="tf">sex<tspan x="155.49" class="ty">VARCHAR</tspan></text><text x="13" y="211" class="tf">hire_date<tspan x="155.49" class="ty">VARCHAR</tspan></text></svg></g></g><text class="qdbd-link" x="10" y="20">www.quickdatabasediagrams.com</text></svg>